<?xml version="1.0" encoding="utf-8"?>
<svg width="481" height="126" viewBox="0 0 481 126" fill="none" xmlns="http://www.w3.org/2000/svg">
  <path d="M421.287 125.517C413.279 125.517 405.619 124.065 398.307 121.162C391.112 118.143 384.728 113.963 379.158 108.622C373.587 103.281 369.234 97.0691 366.101 89.9863C362.967 82.7874 361.4 74.9498 361.4 66.4737C361.4 59.9714 362.271 53.9336 364.012 48.3602C365.869 42.7868 368.364 37.6779 371.498 33.0334C374.747 28.2729 378.345 23.8606 382.291 19.7967L396.741 4.81825C398.946 3.54103 402.079 2.43796 406.141 1.50907C410.203 0.580171 414.846 0.115723 420.069 0.115723C428.425 0.115723 436.259 1.62518 443.571 4.64409C450.998 7.54688 457.498 11.6689 463.069 17.01C468.64 22.235 472.992 28.5051 476.125 35.8201C479.375 43.0191 481 50.8566 481 59.3328C481 65.7189 480.129 71.6406 478.389 77.0979C476.648 82.5552 474.21 87.7221 471.077 92.5988C467.943 97.3594 464.229 101.946 459.935 106.358L445.312 121.162C442.526 122.556 438.986 123.601 434.692 124.297C430.398 125.11 425.93 125.517 421.287 125.517ZM423.55 108.1C428.541 108.1 433.415 107.171 438.174 105.313C442.932 103.455 447.11 100.727 450.708 97.1272C454.422 93.5277 457.382 89.0574 459.587 83.7163C461.792 78.3751 462.895 72.2212 462.895 65.2545C462.895 57.5911 461.618 50.7986 459.065 44.8769C456.627 38.9551 453.204 33.9623 448.793 29.8984C444.499 25.8345 439.683 22.7575 434.344 20.6675C429.005 18.5775 423.608 17.5325 418.154 17.5325C413.163 17.5325 408.347 18.4614 403.704 20.3192C399.178 22.0609 395.058 24.7895 391.344 28.5051C387.63 32.1045 384.728 36.5748 382.639 41.916C380.55 47.141 379.506 53.295 379.506 60.3778C379.506 70.3634 381.595 78.9557 385.773 86.1546C389.951 93.2374 395.348 98.6947 401.963 102.526C408.695 106.242 415.89 108.1 423.55 108.1Z" style="fill: rgb(255, 255, 255);"/>
  <path d="M285.269 123.774V1.85706H303.2V106.532H360.823V123.774H285.269Z" style="fill: rgb(255, 255, 255);"/>
  <path d="M0 123.774V1.85706H30.1175L66.8504 114.892L60.235 115.066L96.6197 1.85706H126.911V123.774H109.154L110.373 5.86291L112.636 6.55959L74.3363 123.774H52.401L13.7531 6.55959L16.5385 5.86291L17.7571 123.774H0Z" style="fill: rgb(255, 255, 255);"/>
  <path d="M 142.771 123.583 L 142.771 1.666 L 172.889 1.666 L 209.622 114.701 L 203.006 114.875 L 239.391 1.666 L 269.682 1.666 L 269.682 123.583 L 251.925 123.583 L 253.144 5.672 L 255.407 6.369 L 217.108 123.583 L 195.172 123.583 L 156.525 6.369 L 159.31 5.672 L 160.529 123.583 L 142.771 123.583 Z" style="fill: rgb(255, 255, 255);"/>
</svg>