<?xml version="1.0" encoding="utf-8"?>
<svg width="70" height="18" viewBox="0 0 70 18" fill="none" xmlns="http://www.w3.org/2000/svg">
  <path d="M60.5014 18C59.3514 18 58.2514 17.7917 57.2014 17.375C56.168 16.9417 55.2514 16.3417 54.4514 15.575C53.6514 14.8083 53.0264 13.9167 52.5764 12.9C52.1264 11.8667 51.9014 10.7417 51.9014 9.525C51.9014 8.59167 52.0264 7.725 52.2764 6.925C52.543 6.125 52.9014 5.39167 53.3514 4.725C53.818 4.04167 54.3347 3.40833 54.9014 2.825L56.9764 0.675C57.293 0.491667 57.743 0.333334 58.3264 0.2C58.9097 0.0666668 59.5764 0 60.3264 0C61.5264 0 62.6514 0.216667 63.7014 0.650001C64.768 1.06667 65.7014 1.65833 66.5014 2.425C67.3014 3.175 67.9264 4.075 68.3764 5.125C68.843 6.15833 69.0764 7.28333 69.0764 8.5C69.0764 9.41667 68.9514 10.2667 68.7014 11.05C68.4514 11.8333 68.1014 12.575 67.6514 13.275C67.2014 13.9583 66.668 14.6167 66.0514 15.25L63.9514 17.375C63.5514 17.575 63.043 17.725 62.4264 17.825C61.8097 17.9417 61.168 18 60.5014 18ZM60.8264 15.5C61.543 15.5 62.243 15.3667 62.9264 15.1C63.6097 14.8333 64.2097 14.4417 64.7264 13.925C65.2597 13.4083 65.6847 12.7667 66.0014 12C66.318 11.2333 66.4764 10.35 66.4764 9.35C66.4764 8.25 66.293 7.275 65.9264 6.425C65.5764 5.575 65.0847 4.85833 64.4514 4.275C63.8347 3.69167 63.143 3.25 62.3764 2.95C61.6097 2.65 60.8347 2.5 60.0514 2.5C59.3347 2.5 58.643 2.63333 57.9764 2.9C57.3264 3.15 56.7347 3.54167 56.2014 4.075C55.668 4.59167 55.2514 5.23333 54.9514 6C54.6514 6.75 54.5014 7.63333 54.5014 8.65C54.5014 10.0833 54.8014 11.3167 55.4014 12.35C56.0014 13.3667 56.7764 14.15 57.7264 14.7C58.693 15.2333 59.7264 15.5 60.8264 15.5Z" fill="#242321"/>
  <path d="M40.9688 17.75V0.25H43.5437V15.275H51.8188V17.75H40.9688Z" fill="#242321"/>
  <path d="M0 17.75V0.25H4.325L9.6 16.475L8.65 16.5L13.875 0.25H18.225V17.75H15.675L15.85 0.825L16.175 0.925L10.675 17.75H7.525L1.975 0.925L2.375 0.825L2.55 17.75H0Z" fill="#242321"/>
  <path d="M 20.494 17.714 L 20.494 0.214 L 24.819 0.214 L 30.094 16.439 L 29.144 16.464 L 34.369 0.214 L 38.719 0.214 L 38.719 17.714 L 36.169 17.714 L 36.344 0.789 L 36.669 0.889 L 31.169 17.714 L 28.019 17.714 L 22.469 0.889 L 22.869 0.789 L 23.044 17.714 L 20.494 17.714 Z" fill="#242321"/>
</svg>