<svg width="243" height="240" viewBox="0 0 243 240" fill="none" xmlns="http://www.w3.org/2000/svg">
<path fill-rule="evenodd" clip-rule="evenodd" d="M243 0H170.555V15.7841H44.2818V80.1349H0.976562V154.604H44.2818V181.315H167.317V240H243V102.395H202.528V127.892H206.575V106.442H238.953V149.747H206.577V140.843H202.53V153.794H238.953V235.953H171.364V177.268H171.361V150.961H186.741V146.914H167.314V177.268H126.44V151.366H150.319V147.319H122.393V177.268H104.18V147.723H100.133V177.268H48.329V150.557H5.02377V84.1821H48.329V19.8314H170.557V74.8735H124.42V87.0151H185.128V74.8735H174.604V19.0219H174.602V4.04722H238.953V83.3727H200.1V73.6594H196.052V87.4199H243V0Z" fill="#B6B5AE"/>
</svg>
